HIERARCHY
ROOT Hips
{
	OFFSET 0.00000 0.00000 0.00000
	CHANNELS 6 Xposition Yposition Zposition Zrotation Yrotation Xrotation 
	JOINT LHipJoint
	{
		OFFSET 0 0 0
		CHANNELS 3 Zrotation Yrotation Xrotation
		JOINT LeftUpLeg
		{
			OFFSET 1.75344 -1.53157 0.77399
			CHANNELS 3 Zrotation Yrotation Xrotation
			JOINT LeftLeg
			{
				OFFSET 2.25415 -6.19323 0.00000
				CHANNELS 3 Zrotation Yrotation Xrotation
				JOINT LeftFoot
				{
					OFFSET 2.30342 -6.32861 0.00000
					CHANNELS 3 Zrotation Yrotation Xrotation
					JOINT LeftToeBase
					{
						OFFSET 0.10958 -0.30108 1.49206
						CHANNELS 3 Zrotation Yrotation Xrotation
						End Site
						{
							OFFSET 0.00000 -0.00000 0.77783
						}
					}
				}
			}
		}
	}
	JOINT RHipJoint
	{
		OFFSET 0 0 0
		CHANNELS 3 Zrotation Yrotation Xrotation
		JOINT RightUpLeg
		{
			OFFSET -1.81912 -1.53156 0.77399
			CHANNELS 3 Zrotation Yrotation Xrotation
			JOINT RightLeg
			{
				OFFSET -2.22882 -6.12365 0.00000
				CHANNELS 3 Zrotation Yrotation Xrotation
				JOINT RightFoot
				{
					OFFSET -2.21943 -6.09785 0.00000
					CHANNELS 3 Zrotation Yrotation Xrotation
					JOINT RightToeBase
					{
						OFFSET -0.18931 -0.52012 1.59379
						CHANNELS 3 Zrotation Yrotation Xrotation
						End Site
						{
							OFFSET -0.00000 -0.00000 0.84686
						}
					}
				}
			}
		}
	}
	JOINT LowerBack
	{
		OFFSET 0 0 0
		CHANNELS 3 Zrotation Yrotation Xrotation
		JOINT Spine
		{
			OFFSET -0.00200 1.66634 -0.14248
			CHANNELS 3 Zrotation Yrotation Xrotation
			JOINT Spine1
			{
				OFFSET -0.00875 1.64542 0.09514
				CHANNELS 3 Zrotation Yrotation Xrotation
				JOINT Neck
				{
					OFFSET 0 0 0
					CHANNELS 3 Zrotation Yrotation Xrotation
					JOINT Neck1
					{
						OFFSET 0.02257 1.59605 0.00839
						CHANNELS 3 Zrotation Yrotation Xrotation
						JOINT Head
						{
							OFFSET -0.10214 1.57530 -0.23335
							CHANNELS 3 Zrotation Yrotation Xrotation
							End Site
							{
								OFFSET -0.03588 1.60717 -0.08062
							}
						}
					}
				}
				JOINT LeftShoulder
				{
					OFFSET 0 0 0
					CHANNELS 3 Zrotation Yrotation Xrotation
					JOINT LeftArm
					{
						OFFSET 2.54983 1.10186 0.40078
						CHANNELS 3 Zrotation Yrotation Xrotation
						JOINT LeftForeArm
						{
							OFFSET 4.28840 -0.00000 0.00000
							CHANNELS 3 Zrotation Yrotation Xrotation
							JOINT LeftHand
							{
								OFFSET 3.06552 -0.00000 -0.00000
								CHANNELS 3 Zrotation Yrotation Xrotation
								JOINT LeftFingerBase
								{
									OFFSET 0 0 0
									CHANNELS 3 Zrotation Yrotation Xrotation
									JOINT LeftHandIndex1
									{
										OFFSET 0.75304 -0.00000 0.00000
										CHANNELS 3 Zrotation Yrotation Xrotation
										End Site
										{
											OFFSET 0.60712 -0.00000 0.00000
										}
									}
								}
								JOINT LThumb
								{
									OFFSET 0 0 0
									CHANNELS 3 Zrotation Yrotation Xrotation
									End Site
									{
										OFFSET 0.61639 -0.00000 0.61639
									}
								}
							}
						}
					}
				}
				JOINT RightShoulder
				{
					OFFSET 0 0 0
					CHANNELS 3 Zrotation Yrotation Xrotation
					JOINT RightArm
					{
						OFFSET -2.60909 1.35448 0.21802
						CHANNELS 3 Zrotation Yrotation Xrotation
						JOINT RightForeArm
						{
							OFFSET -4.52172 -0.00000 -0.00000
							CHANNELS 3 Zrotation Yrotation Xrotation
							JOINT RightHand
							{
								OFFSET -2.89140 -0.00000 0.00000
								CHANNELS 3 Zrotation Yrotation Xrotation
								JOINT RightFingerBase
								{
									OFFSET 0 0 0
									CHANNELS 3 Zrotation Yrotation Xrotation
									JOINT RightHandIndex1
									{
										OFFSET -0.68054 -0.00000 0.00000
										CHANNELS 3 Zrotation Yrotation Xrotation
										End Site
										{
											OFFSET -0.54867 -0.00000 0.00000
										}
									}
								}
								JOINT RThumb
								{
									OFFSET 0 0 0
									CHANNELS 3 Zrotation Yrotation Xrotation
									End Site
									{
										OFFSET -0.55705 -0.00000 0.55705
									}
								}
							}
						}
					}
				}
			}
		}
	}
}
MOTION
Frames: 16
Frame Time: .0083333
8.5312 15.1069 42.6284 0 0 0 0 0 0 -21 0 0 0 0 0 0 0 0 0 0 0 0 0 0 21 0 0 0 0 0 0 0 0 0 0 0 0 0 0 0 0 0 0 0 0 0 0 -16 0 0 21 0 0 11 0 0 0 -8 0 0 0 0 0 0 0 0 0 0 0 0 0 0 0 0 0 0 0 0 8 0 0 0 0 0 0 0 0 0 0 0 0 0 0 0 0 0
8.5312 15.1069 42.6284 -178.7040 -6.3731 174.7200 0.0000 0.0000 0.0000 -25.7306 -23.7665 1.1147 2.5921 10.0034 28.9878 1.5248 4.5996 -25.3734 3.6474 -11.6758 -34.5945 0.0000 0.0000 0.0000 25.7004 13.6712 2.0545 -2.1939 -9.2589 26.6085 -0.0524 -22.6116 -32.2064 -0.0003 -0.1198 0.3290 3.4647 0.8791 12.8476 0.4388 1.7722 -2.3337 -1.8547 0.6637 -9.6609 2.8550 9.9954 -10.4368 8.2829 8.7513 33.1471 3.6454 4.3788 12.4364 0.0000 0.0000 0.0000 -86.8755 10.7335 27.8835 18.9975 -29.4155 -5.0296 -0.0000 -0.0000 16.2557 4.8034 -18.7771 -1.5494 -7.1250 0.0000 -0.0000 -15.1528 11.6237 12.2356 0.0000 0.0000 0.0000 84.3554 -12.9594 48.3847 -19.3256 29.8212 -5.1918 0.0000 0.0000 11.9802 -15.2515 -56.1371 12.7572 7.1250 -0.0000 -0.0000 79.4163 -77.5101 -66.5999
8.5329 15.1210 42.6227 -178.9410 -5.9221 175.2720 0.0000 0.0000 0.0000 -25.7142 -23.7200 0.5930 2.5585 9.9435 28.7940 1.5232 4.5786 -25.3506 3.5197 -11.4923 -33.9587 0.0000 0.0000 0.0000 25.3863 14.3629 1.5595 -2.2253 -9.3204 26.8028 -0.1101 -22.3914 -32.2764 -0.0001 -0.0601 0.1650 3.1909 1.1204 12.2489 0.3581 2.0262 -2.4808 -1.8242 0.8037 -9.4650 2.9474 10.2459 -10.2073 8.5046 9.0717 32.9352 3.7280 4.5733 12.2822 0.0000 0.0000 0.0000 -86.7997 10.7504 28.0383 18.9801 -29.3940 -5.0211 -0.0000 -0.0000 16.1275 -2.9912 -32.4185 1.6046 -7.1250 0.0000 -0.0000 -19.3949 -0.9100 20.9304 0.0000 0.0000 0.0000 84.4604 -12.9688 48.0111 -19.2809 29.7662 -5.1696 0.0000 0.0000 12.5097 -13.7738 -56.1553 11.5081 7.1250 -0.0000 -0.0000 79.4285 -76.9644 -66.0122
8.5364 15.1202 42.6204 -179.0460 -5.4713 175.6880 0.0000 0.0000 0.0000 -25.6416 -23.7638 0.2673 2.5339 9.8993 28.6512 1.5342 4.7931 -25.5473 3.4062 -11.3253 -33.3849 0.0000 0.0000 0.0000 25.2873 15.1000 1.2491 -2.2503 -9.3691 26.9568 -0.0710 -22.5419 -32.2305 -0.0008 0.1787 -0.4910 2.9869 1.3220 11.8016 0.3482 2.2500 -2.5968 -1.7517 0.9253 -9.3263 3.1821 10.4520 -9.9812 8.3761 9.3970 32.7969 3.6626 4.7386 12.1922 0.0000 0.0000 0.0000 -86.8552 10.7378 27.8022 19.0168 -29.4395 -5.0391 -0.0000 -0.0000 16.0189 4.6919 -37.4422 -2.8565 -7.1250 0.0000 -0.0000 -15.4710 -6.3636 17.7159 0.0000 0.0000 0.0000 84.4655 -13.0115 48.0046 -19.3020 29.7923 -5.1801 0.0000 0.0000 12.5668 -13.1811 -56.1369 11.0051 7.1250 -0.0000 -0.0000 79.3473 -76.7450 -65.6901
8.5417 15.1305 42.6196 -179.1090 -5.0526 175.9160 0.0000 0.0000 0.0000 -25.5895 -23.6994 0.1646 2.4999 9.8377 28.4526 1.5405 5.0253 -25.7210 3.3201 -11.1960 -32.9437 0.0000 0.0000 0.0000 25.1048 15.1344 0.8462 -2.2689 -9.4050 27.0707 -0.0683 -22.2659 -31.8403 -0.0015 0.2532 -0.6958 2.7937 1.5071 11.5904 0.3573 2.4633 -2.6610 -1.6681 1.0403 -9.2709 3.3380 10.6249 -9.9255 8.3106 9.6385 32.8404 3.6440 4.8583 12.2061 0.0000 0.0000 0.0000 -86.7625 10.7264 27.8775 19.0553 -29.4873 -5.0580 -0.0000 -0.0000 15.9527 -4.8713 -31.3036 2.5354 -7.1250 0.0000 -0.0000 -20.4226 0.2374 21.7718 0.0000 0.0000 0.0000 84.4951 -13.0175 47.9395 -19.2936 29.7819 -5.1759 0.0000 0.0000 12.8003 -12.2794 -56.5825 10.2969 7.1250 -0.0000 -0.0000 81.2367 -76.4373 -67.2055
8.5462 15.1347 42.6177 -179.2220 -4.6749 176.3990 0.0000 0.0000 0.0000 -25.4629 -23.7237 -0.3241 2.4811 9.8034 28.3424 1.5360 5.0676 -25.7109 3.2069 -11.0227 -32.3564 0.0000 0.0000 0.0000 24.8469 15.4378 0.2768 -2.2860 -9.4380 27.1754 -0.0983 -21.9281 -31.5807 -0.0001 0.0767 -0.2107 2.5539 1.7013 11.0921 0.3423 2.6723 -2.7893 -1.5724 1.1566 -9.1205 3.4412 10.7925 -9.9390 8.3198 9.8448 32.9679 3.6663 4.9621 12.2614 0.0000 -0.0000 0.0000 -86.6470 10.7779 28.2940 19.2048 -29.6724 -5.1319 -0.0000 -0.0000 15.7694 3.5372 -37.0249 -2.1317 -7.1250 0.0000 -0.0000 -16.0453 -5.8347 18.2926 0.0000 -0.0000 0.0000 84.5300 -13.0135 47.7779 -19.2723 29.7556 -5.1653 0.0000 0.0000 13.1556 -10.9280 -56.9539 9.1932 7.1250 -0.0000 -0.0000 82.7596 -75.9615 -68.1844
8.5551 15.1578 42.6129 -179.3410 -3.8791 177.4540 0.0000 0.0000 0.0000 -25.0428 -23.7633 -1.4436 2.4580 9.7611 28.2065 1.5273 5.2836 -25.7677 3.1401 -10.9184 -32.0052 0.0000 0.0000 0.0000 24.5010 16.4435 -0.7140 -2.2869 -9.4397 27.1806 -0.0434 -21.8817 -31.1574 -0.0047 0.4429 -1.2171 2.1570 2.0744 9.9818 0.3616 3.0851 -3.0556 -1.3618 1.3834 -8.7669 3.5061 10.9361 -9.9589 8.2818 10.0521 33.0557 3.6757 5.0593 12.3018 0.0000 -0.0000 0.0000 -86.6548 10.8686 29.0018 19.7210 -30.3047 -5.3899 -0.0000 -0.0000 14.7336 2.4819 -34.2551 -1.3976 -7.1250 0.0000 -0.0000 -16.4855 -3.0755 18.0957 0.0000 -0.0000 0.0000 84.4977 -13.0138 47.6887 -19.3067 29.7980 -5.1824 0.0000 0.0000 13.2684 -9.9069 -57.0516 8.3380 7.1250 -0.0000 -0.0000 83.1622 -75.5998 -68.1800
8.5555 15.1555 42.6150 -179.3280 -4.0552 177.3400 0.0000 0.0000 0.0000 -25.0620 -23.6773 -1.3471 2.4524 9.7509 28.1738 1.5228 5.2471 -25.7141 3.1612 -10.9515 -32.1164 0.0000 0.0000 0.0000 24.5921 16.4742 -0.5400 -2.2891 -9.4439 27.1941 -0.0368 -22.1235 -31.4429 -0.0106 0.6651 -1.8276 2.2402 2.0382 10.1159 0.3519 3.0510 -3.0219 -1.4180 1.3617 -8.8049 3.5691 11.0830 -9.9831 8.2548 10.2750 33.0725 3.6878 5.1693 12.3126 -0.0000 0.0000 0.0000 -86.6111 10.9048 29.2708 19.6826 -30.2581 -5.3705 -0.0000 -0.0000 15.1960 5.3915 -34.3721 -3.0500 -7.1250 0.0000 -0.0000 -14.9282 -3.4923 16.3613 -0.0000 0.0000 0.0000 84.4903 -12.9609 47.7161 -19.2936 29.7818 -5.1758 0.0000 0.0000 13.2227 -9.1938 -56.7833 7.7114 7.1250 -0.0000 -0.0000 82.1541 -75.3356 -66.8787
8.5547 15.1541 42.6130 -179.2710 -4.4643 177.2990 0.0000 0.0000 0.0000 -25.0308 -23.7861 -1.2919 2.4469 9.7406 28.1408 1.5207 5.1165 -25.6251 3.1636 -10.9553 -32.1292 0.0000 0.0000 0.0000 24.7008 16.3689 -0.4092 -2.2822 -9.4306 27.1519 -0.1081 -22.1445 -31.9338 -0.0049 0.4521 -1.2424 2.2957 1.9258 10.0756 0.4000 2.9097 -2.9937 -1.3714 1.2925 -8.7559 3.5590 11.2018 -10.0359 8.2573 10.4614 33.1090 3.7205 5.2572 12.3304 -0.0000 -0.0000 0.0000 -86.6578 10.8171 29.3273 19.7399 -30.3277 -5.3994 -0.0000 -0.0000 14.8191 7.8659 -34.5042 -4.4749 -7.1250 0.0000 -0.0000 -13.5995 -3.9208 14.9120 -0.0000 -0.0000 0.0000 84.4061 -12.9208 47.8423 -19.2567 29.7364 -5.1575 0.0000 0.0000 13.0252 -8.7075 -56.1682 7.2504 7.1250 -0.0000 -0.0000 79.8610 -75.1161 -64.3670
8.5534 15.1525 42.6141 -179.2340 -4.3304 177.2540 0.0000 0.0000 0.0000 -25.0108 -23.7254 -1.2662 2.4505 9.7474 28.1625 1.5015 5.3730 -25.6276 3.3765 -11.2810 -33.2335 0.0000 0.0000 0.0000 24.7308 16.3695 -0.3801 -2.2805 -9.4275 27.1418 -0.1558 -21.9208 -31.9427 -0.0024 0.3157 -0.8673 2.3895 2.0102 10.1650 0.3866 3.0372 -3.0040 -1.4642 1.3476 -8.8092 3.6041 11.2852 -10.0940 8.3025 10.5507 33.1986 3.7519 5.3078 12.3771 -0.0000 -0.0000 0.0000 -86.6139 10.6818 29.2880 19.7889 -30.3872 -5.4242 -0.0000 -0.0000 14.1766 4.4296 -34.1048 -2.4871 -7.1250 0.0000 -0.0000 -15.4341 -3.1288 16.8637 -0.0000 -0.0000 0.0000 84.4809 -12.9837 47.7797 -19.2450 29.7220 -5.1518 0.0000 0.0000 12.9120 -8.0924 -55.8893 6.7141 7.1250 -0.0000 -0.0000 78.9247 -74.8639 -63.1642
8.5529 15.1524 42.6110 -179.2670 -4.4594 177.2120 0.0000 0.0000 0.0000 -25.0661 -23.7090 -1.2245 2.4527 9.7514 28.1755 1.4807 5.4248 -25.5025 3.5632 -11.5552 -34.1762 0.0000 0.0000 0.0000 24.7133 16.2694 -0.3152 -2.2783 -9.4232 27.1284 -0.1465 -22.0034 -31.9923 -0.0014 0.2388 -0.6561 2.5225 2.0141 10.4281 0.2856 3.0639 -3.1851 -1.6670 1.3409 -9.1469 3.6950 11.4032 -9.9697 8.4289 10.6286 33.3671 3.7954 5.3551 12.4177 -0.0000 -0.0000 0.0000 -86.4523 10.8958 29.5142 19.6128 -30.1730 -5.3354 -0.0000 -0.0000 14.7458 7.8817 -34.7819 -4.5153 -7.1250 0.0000 -0.0000 -13.6100 -4.1918 14.9845 -0.0000 -0.0000 0.0000 84.6561 -13.3265 47.6755 -19.2241 29.6962 -5.1414 0.0000 0.0000 12.9360 -7.4550 -55.9882 6.1905 7.1250 -0.0000 -0.0000 79.4158 -74.6455 -63.3943
8.5519 15.1509 42.6086 -179.3410 -4.5602 177.1310 0.0000 0.0000 0.0000 -25.1910 -23.7086 -1.1396 2.4548 9.7552 28.1876 1.4976 5.1722 -25.4853 3.4184 -11.3435 -33.4471 0.0000 0.0000 0.0000 24.6435 16.1346 -0.2418 -2.2773 -9.4213 27.1223 -0.1097 -22.2403 -32.0722 -0.0051 0.4592 -1.2619 2.4222 2.0050 10.5170 0.3171 3.0434 -3.2046 -1.5781 1.3357 -9.2278 3.7105 11.5406 -9.8680 8.3972 10.8408 33.4159 3.8036 5.4462 12.4121 -0.0000 -0.0000 0.0000 -86.5420 10.8805 29.4568 19.6066 -30.1654 -5.3322 -0.0000 -0.0000 14.5484 5.3591 -34.3788 -3.0321 -7.1250 0.0000 -0.0000 -14.9460 -3.4951 16.3829 -0.0000 -0.0000 0.0000 84.5465 -13.3929 47.8616 -19.2257 29.6982 -5.1422 0.0000 0.0000 12.8364 -6.9699 -56.3894 5.8134 7.1250 -0.0000 -0.0000 80.9663 -74.5133 -64.7665
8.5512 15.1506 42.6072 -179.3210 -4.5656 177.1350 0.0000 0.0000 0.0000 -25.1527 -23.6666 -1.1879 2.4570 9.7593 28.2009 1.5202 4.9444 -25.5261 3.3109 -11.1821 -32.8964 0.0000 0.0000 0.0000 24.6514 16.1286 -0.2668 -2.2754 -9.4176 27.1107 -0.0592 -22.4773 -32.0681 -0.0107 0.6682 -1.8363 2.3937 2.0405 10.5311 0.3527 3.0905 -3.2400 -1.5341 1.3595 -9.2765 3.8498 11.6367 -9.7840 8.2491 11.0048 33.4371 3.7446 5.5177 12.4211 0.0000 0.0000 0.0000 -86.5505 10.9702 29.4964 19.6997 -30.2789 -5.3791 -0.0000 -0.0000 14.4050 6.8906 -34.4357 -3.9093 -7.1250 0.0000 -0.0000 -14.1227 -3.7313 15.4769 0.0000 0.0000 0.0000 84.5178 -13.4757 47.8885 -19.2385 29.7139 -5.1485 0.0000 0.0000 12.8459 -6.7162 -56.6227 5.6163 7.1250 -0.0000 -0.0000 81.8530 -74.4431 -65.5635
8.5497 15.1510 42.6061 -179.2550 -4.5451 177.1700 0.0000 0.0000 0.0000 -25.0579 -23.6002 -1.2533 2.4597 9.7643 28.2168 1.5290 4.9002 -25.5672 3.3749 -11.2785 -33.2251 0.0000 0.0000 0.0000 24.6985 16.1580 -0.3149 -2.2731 -9.4132 27.0967 -0.0551 -22.3845 -31.9160 -0.0065 0.5225 -1.4358 2.4870 2.1024 10.4505 0.3513 3.1834 -3.2399 -1.6007 1.4001 -9.2206 3.9861 11.6982 -9.8062 8.1022 11.1185 33.4650 3.6892 5.5694 12.4569 0.0000 0.0000 0.0000 -86.4760 11.0032 29.6805 19.6928 -30.2704 -5.3756 -0.0000 -0.0000 14.7326 5.4858 -34.0316 -3.0766 -7.1250 0.0000 -0.0000 -14.8602 -3.1749 16.2030 0.0000 0.0000 0.0000 84.5911 -13.5054 47.7222 -19.2117 29.6808 -5.1352 0.0000 0.0000 13.0249 -6.8611 -56.3647 5.7208 7.1250 -0.0000 -0.0000 80.8966 -74.4722 -64.6505
8.5489 15.1492 42.6061 -179.2200 -4.7142 177.0810 0.0000 0.0000 0.0000 -25.0496 -23.5343 -1.1850 2.4622 9.7689 28.2315 1.5274 4.7811 -25.4904 3.4197 -11.3453 -33.4534 0.0000 0.0000 0.0000 24.7688 16.0637 -0.1926 -2.2702 -9.4075 27.0787 -0.0977 -22.2452 -32.0016 -0.0062 0.5079 -1.3957 2.4607 2.0999 10.3965 0.4279 3.1792 -3.1426 -1.4986 1.4057 -9.0887 3.9223 11.7320 -9.9152 8.0257 11.2208 33.4963 3.6945 5.6043 12.4883 0.0000 0.0000 0.0000 -86.5969 10.8252 29.6949 19.5751 -30.1270 -5.3164 -0.0000 -0.0000 15.1510 7.6499 -33.8721 -4.2812 -7.1250 0.0000 -0.0000 -13.6756 -3.2806 14.8555 0.0000 0.0000 0.0000 84.5138 -13.4080 47.6253 -19.1850 29.6479 -5.1220 0.0000 0.0000 13.0968 -7.0511 -56.0794 5.8603 7.1250 -0.0000 -0.0000 79.8288 -74.5107 -63.6443
8.5493 15.1480 42.6053 -179.2310 -4.8756 176.9740 0.0000 0.0000 0.0000 -25.0974 -23.5106 -1.0967 2.4620 9.7685 28.2304 1.5242 4.7057 -25.4258 3.2533 -11.0942 -32.5981 0.0000 0.0000 0.0000 24.8030 15.9722 -0.0500 -2.2707 -9.4085 27.0817 -0.1097 -22.3189 -32.1766 -0.0159 0.8153 -2.2407 2.3922 2.0517 10.4243 0.4800 3.1096 -3.0978 -1.3928 1.3784 -9.0652 3.8901 11.7850 -9.9110 7.9568 11.3345 33.5215 3.6897 5.6435 12.4958 -0.0000 0.0000 0.0000 -86.7215 10.7578 29.3623 19.6297 -30.1937 -5.3439 -0.0000 -0.0000 14.8855 4.8011 -34.2681 -2.7077 -7.1250 0.0000 -0.0000 -15.2412 -3.3262 16.6875 -0.0000 0.0000 0.0000 84.4114 -13.3981 47.7079 -19.1469 29.6008 -5.1032 0.0000 0.0000 13.1083 -7.3686 -55.8527 6.1089 7.1250 -0.0000 -0.0000 78.9405 -74.5981 -62.8756
